<?xml version="1.0" encoding="UTF-8" standalone="no" ?>
<!DOCTYPE svg PUBLIC "-//W3C//DTD SVG 1.1//EN" "http://www.w3.org/Graphics/SVG/1.1/DTD/svg11.dtd">
<svg xmlns="http://www.w3.org/2000/svg" xmlns:xlink="http://www.w3.org/1999/xlink" version="1.1" width="576" height="505" viewBox="0 0 576 505" xml:space="preserve">
<desc>Created with Fabric.js 3.6.3</desc>
<defs>
</defs>
<g transform="matrix(1 0 0 1 288.5 252.65)"  >
<path style="stroke: none; stroke-width: 1; stroke-dasharray: none; stroke-linecap: butt; stroke-dashoffset: 0; stroke-linejoin: miter; stroke-miterlimit: 4; fill: rgb(85,172,238); fill-rule: nonzero; opacity: 1;"  transform=" translate(-288, -252.15)" d="M 273.2 311.1 C 241.1 271.9 167.1 174.6 167.1 120 C 167.1 53.73 221.7 0 287.1 0 C 354.3 0 408 53.73 408 120 C 408 174.6 334.9 271.9 302.8 311.1 C 295.1 321.6 280.9 321.6 273.2 311.1 V 311.1 z M 416 503 V 200.4 C 419.5 193.5 422.7 186.7 425.6 179.8 C 426.1 178.6 426.6 177.4 427.1 176.1 L 543.1 129.7 C 558.9 123.4 576 135 576 152 V 422.8 C 576 432.6 570 441.4 560.9 445.1 L 416 503 z M 15.09 187.3 L 137.6 138.3 C 140 152.5 144.9 166.6 150.4 179.8 C 153.3 186.7 156.5 193.5 160 200.4 V 451.8 L 32.91 502.7 C 17.15 508.1 0 497.4 0 480.4 V 209.6 C 0 199.8 5.975 190.1 15.09 187.3 H 15.09 z M 384 504.3 L 191.1 449.4 V 255 C 212.5 286.3 234.3 314.6 248.2 331.1 C 268.7 357.6 307.3 357.6 327.8 331.1 C 341.7 314.6 363.5 286.3 384 255 L 384 504.3 z" stroke-linecap="round" />
</g>
</svg>