<?xml version="1.0" encoding="UTF-8" standalone="no"?>
<!-- Created with Inkscape (http://www.inkscape.org/) -->

<svg
   width="210mm"
   height="297mm"
   viewBox="0 0 210 297"
   version="1.1"
   id="svg1256"
   inkscape:version="1.1.2 (1:1.1+202202050950+0a00cf5339)"
   sodipodi:docname="Implera-metering.svg"
   xmlns:inkscape="http://www.inkscape.org/namespaces/inkscape"
   xmlns:sodipodi="http://sodipodi.sourceforge.net/DTD/sodipodi-0.dtd"
   xmlns="http://www.w3.org/2000/svg"
   xmlns:svg="http://www.w3.org/2000/svg">
  <sodipodi:namedview
     id="namedview1258"
     pagecolor="#ffffff"
     bordercolor="#666666"
     borderopacity="1.0"
     inkscape:pageshadow="2"
     inkscape:pageopacity="0.0"
     inkscape:pagecheckerboard="0"
     inkscape:document-units="mm"
     showgrid="false"
     inkscape:zoom="3.6233469"
     inkscape:cx="322.76788"
     inkscape:cy="254.04689"
     inkscape:window-width="1680"
     inkscape:window-height="986"
     inkscape:window-x="0"
     inkscape:window-y="27"
     inkscape:window-maximized="1"
     inkscape:current-layer="layer1" />
  <defs
     id="defs1253" />
  <g
     inkscape:label="Plast 1"
     inkscape:groupmode="layer"
     id="layer1">
    <g
       id="g1296"
       transform="matrix(1.0807464,0,0,1.0807464,53.909308,31.71557)"
       inkscape:export-filename="/home/zadihaj/Dokumenti/Logoti/Logo-Implere-metering.png"
       inkscape:export-xdpi="115.61408"
       inkscape:export-ydpi="115.61408">
      <g
         id="g1290"
         transform="matrix(1.0754056,0,0,1.0754056,-40.529589,-20.425089)">
        <path
           style="fill:#11ccfe;stroke-width:0.0446539"
           d="m 56.496235,35.596534 h 0.262568 0.26257 l 0.03209,0.51352 c 0.01765,0.282436 0.04022,0.513521 0.05015,0.513521 0.0099,0 0.183777,-0.131237 0.386317,-0.291635 0.410308,-0.324939 1.131306,-0.695983 1.551584,-0.81016 0.420278,-0.114177 1.262077,-0.115589 1.696848,0.0031 0.43477,0.118711 0.858186,0.358697 1.175839,0.695427 0.641003,0.679496 0.922896,1.53847 0.922896,2.812215 0,0.915099 -0.106179,1.381343 -0.483569,2.123413 -0.164094,0.322661 -0.284203,0.482082 -0.609286,0.808702 -0.332698,0.334273 -0.472416,0.439461 -0.783533,0.589888 -0.877991,0.424512 -1.656478,0.454248 -2.578941,0.09851 -0.34679,-0.133736 -0.94535,-0.486493 -1.159904,-0.683582 l -0.100471,-0.09229 v 4.079076 H 56.808816 56.49624 Z m 3.536625,6.694027 c 0.407829,-0.08396 0.866459,-0.339699 1.191958,-0.664652 0.69379,-0.692621 0.976665,-1.550419 0.930881,-2.822831 -0.05571,-1.548382 -0.595888,-2.416417 -1.704226,-2.738621 -0.320892,-0.09328 -0.831091,-0.133503 -1.276003,-0.02572 -0.444911,0.107781 -1.286077,0.546481 -1.774121,1.00301 l -0.279961,0.261878 v 3.99544 l 0.258721,0.203262 c 0.858447,0.674434 1.819065,0.959872 2.652751,0.788236 z m 21.895526,0.626982 c -0.683946,-0.106787 -1.161255,-0.332511 -1.518062,-0.717904 -0.646451,-0.698245 -0.615176,-1.832361 0.0689,-2.498676 0.685361,-0.667563 1.995734,-1.077543 4.227127,-1.322549 l 0.725626,-0.07968 v -0.249938 c 0,-0.321884 -0.143119,-0.879888 -0.289933,-1.130404 -0.142071,-0.242426 -0.485092,-0.56814 -0.729812,-0.692986 -0.492395,-0.251201 -1.34997,-0.289744 -2.083703,-0.09365 -0.377639,0.100925 -1.753933,0.828604 -1.753933,0.828604 -0.11537,-0.183433 -0.139909,-0.227235 -0.283928,-0.468846 0.916403,-0.532147 1.514922,-0.796247 2.261511,-0.961266 0.735463,-0.155785 1.732694,-0.05375 2.269135,0.232161 0.347146,0.185025 0.793621,0.649778 0.95599,0.995123 0.272386,0.579348 0.279829,0.671912 0.279829,3.480659 v 2.547622 h -0.485722 l -0.023,-0.189779 c -0.01266,-0.104378 -0.03447,-0.339309 -0.0485,-0.522069 -0.01403,-0.182759 -0.03373,-0.340517 -0.04378,-0.350574 -0.01006,-0.01006 -0.232589,0.125018 -0.494518,0.300165 -0.58115,0.388609 -1.20258,0.692301 -1.651609,0.807145 -0.408792,0.10455 -1.021519,0.143062 -1.381624,0.08684 z m 1.360207,-0.605869 c 0.412069,-0.09606 1.293629,-0.543449 1.752667,-0.889479 l 0.390721,-0.294532 v -2.367795 l -0.122797,0.02316 c -0.06754,0.01274 -0.26346,0.03577 -0.435377,0.05118 -0.492056,0.04411 -1.481793,0.197111 -1.897791,0.293376 -1.629281,0.377034 -2.364998,0.936673 -2.366224,1.799922 -5.06e-4,0.40642 0.06795,0.616317 0.279765,0.856954 0.491005,0.557811 1.405583,0.758803 2.399036,0.527221 z m -17.939152,0.540495 c -0.554959,-0.12057 -1.003159,-0.448469 -1.215258,-0.889074 -0.253278,-0.526146 -0.24413,-0.348463 -0.259367,-5.038106 l -0.01404,-4.320268 h -2.631228 v -0.535847 h 3.259736 l 8.44e-4,4.431903 c 8.44e-4,4.657712 0.006,4.793306 0.199404,5.167217 0.373724,0.722702 1.419366,0.896753 2.577374,0.429014 l 0.239665,-0.1005 0.172116,0.454881 c -0.412191,0.214886 -0.654358,0.313959 -1.068274,0.401062 -0.382741,0.08054 -0.889405,0.08043 -1.260908,-3.38e-4 z M 48.27991,39.213504 v -3.572315 h 0.261563 0.261562 l 0.02869,0.274473 c 0.01578,0.150961 0.02869,0.361951 0.02869,0.468867 0,0.106915 0.01676,0.194392 0.03723,0.194392 0.02048,0 0.113541,-0.110798 0.206807,-0.246216 0.243894,-0.354122 0.647283,-0.711961 0.899445,-0.797882 0.25869,-0.08814 0.864233,-0.09285 1.100466,-0.0085 0.372106,0.132792 0.634627,0.430296 0.812033,0.920244 l 0.09834,0.271576 0.157407,-0.237042 c 0.24882,-0.374708 0.589364,-0.720848 0.848264,-0.862202 0.202317,-0.110463 0.300275,-0.132928 0.646849,-0.148355 0.853055,-0.03797 1.314014,0.315184 1.533976,1.175225 0.08486,0.331785 0.08935,0.495052 0.08935,3.244726 v 2.895362 H 55.00033 54.71008 l -8.44e-4,-2.668072 c -5.06e-4,-1.531054 -0.01984,-2.799226 -0.04537,-2.975832 -0.127279,-0.880519 -0.642281,-1.287179 -1.364299,-1.077282 -0.213732,0.06213 -0.309237,0.126322 -0.554704,0.372818 -0.163087,0.163768 -0.380401,0.439589 -0.482921,0.612935 L 52.075538,37.3656 v 2.710129 2.710128 H 51.78681 51.498085 l -0.01269,-2.935995 -0.01269,-2.935997 -0.102381,-0.25329 c -0.111301,-0.275354 -0.371332,-0.547742 -0.577466,-0.604906 -0.262876,-0.0729 -0.609967,-0.03648 -0.871426,0.09144 -0.283697,0.138799 -0.502105,0.375142 -0.813668,0.880481 l -0.20266,0.328704 v 2.714781 2.714779 h -0.312578 -0.312577 z m 26.342022,-3.607166 0.579812,-0.0087 c 0.02019,0.519429 0.0094,1.275597 0.02663,1.790959 0.02133,-0.0082 0.178712,-0.182115 0.329432,-0.370132 0.641496,-0.800247 1.625154,-1.410664 2.405309,-1.492864 0.780154,-0.0822 1.137336,-0.07155 2.097681,0.194117 l -0.18419,0.561646 C 79.049935,36.02431 78.300281,35.9842 77.662192,36.16937 c -0.868649,0.269603 -1.543768,0.8235 -2.196561,1.802156 l -0.214751,0.321949 v 4.492367 h -0.625155 l -0.0038,-7.179504 z M 46.58306,39.459099 v -3.282063 h -1.339618 -1.339617 v -0.267924 -0.267923 h 1.629869 1.629869 v 3.549986 3.549989 H 46.873312 46.58306 Z"
           id="path1284"
           sodipodi:nodetypes="cccssszzssssssscccccsssszsccsssssscsssscccsssccssssssssccssscsscsscccccssccsccccccssssssscsssssccccsssscccccccsssscccccccccszcccscccccscccccccccccs" />
        <path
           style="fill:#1cfe00;stroke-width:0.0446539"
           d="m 43.903825,44.393358 h 11.654677 v 0.580503 H 43.903825 Z m 14.065989,0 h 4.132248 c 4.24948,0 4.667407,-0.01428 5.327558,-0.182004 0.734897,-0.186719 1.43084,-0.647475 1.81477,-1.201485 l 0.12452,-0.179684 -0.530855,-0.546868 c -0.605146,-0.623397 -0.999769,-1.173978 -1.313117,-1.83206 -0.31778,-0.667396 -0.420119,-1.095059 -0.419076,-1.751274 0.001,-0.609126 0.07136,-0.935013 0.308632,-1.428926 0.389442,-0.810665 1.119923,-1.400472 2.076034,-1.67624 0.460547,-0.132833 1.408136,-0.1687 1.869465,-0.07076 0.740226,0.157149 1.477734,0.666442 1.874247,1.294274 0.207627,0.328755 0.422693,0.899216 0.39795,1.055555 l -3.335835,4.906599 c 0.003,0.04082 0.595273,0.495456 0.98033,0.752549 0.428922,0.286381 0.78063,0.461511 1.227983,0.611462 0.748685,0.250957 0.670232,0.248314 7.379062,0.248599 l 6.173407,3.38e-4 v 0.290252 0.29025 l -6.329695,-3.38e-4 c -6.782892,-3.37e-4 -6.756096,5.07e-4 -7.490698,-0.224774 -0.48741,-0.149485 -1.130605,-0.508894 -1.772518,-0.990461 l -0.588009,-0.44113 -0.404951,0.396795 c -0.514661,0.504298 -0.697038,0.642281 -1.103359,0.83479 -0.402201,0.190557 -0.874963,0.314573 -1.438885,0.377454 -0.272391,0.03038 -1.970147,0.0476 -4.692999,0.0476 h -4.266209 z m 14.973118,-6.639605 c 0.0023,-0.146505 -0.321088,-0.678772 -0.577595,-0.950682 -0.516129,-0.547126 -1.154564,-0.79207 -1.937076,-0.743187 -0.931453,0.05819 -1.658892,0.41059 -2.131423,1.032558 -0.418859,0.55132 -0.572477,1.059397 -0.5333,1.76383 0.06082,1.09358 0.50178,1.9772 1.49946,3.004705 0.407928,0.420119 0.521895,0.514793 0.56443,0.468867 z"
           id="path1286"
           sodipodi:nodetypes="ccccccssscsscssssccsscccccsscsssscccssssscc" />
        <path
           id="path1288"
           style="fill:#11ccfe;fill-rule:evenodd;stroke-width:0.646844;stroke-linecap:round"
           d="m 47.467411,33.144892 a 0.67508302,0.67508302 0 0 1 -0.675083,0.675083 0.67508302,0.67508302 0 0 1 -0.675083,-0.675083 0.67508302,0.67508302 0 0 1 0.675083,-0.675083 0.67508302,0.67508302 0 0 1 0.675083,0.675083 z" />
      </g>
      <text
         xml:space="preserve"
         style="font-size:5.31131px;line-height:125%;font-family:sans-serif;letter-spacing:1.42268px;word-spacing:0px;fill:#11ccfe;fill-opacity:1;stroke:none;stroke-width:0.284534px;stroke-linecap:butt;stroke-linejoin:miter;stroke-opacity:1"
         x="12.277038"
         y="33.313465"
         id="text1294"><tspan
           sodipodi:role="line"
           id="tspan1292"
           style="font-size:5.31131px;fill:#11ccfe;fill-opacity:1;stroke:none;stroke-width:0.284534px"
           x="12.277038"
           y="33.313465"
           dx="0">metering</tspan></text>
    </g>
  </g>
</svg>
